<mxfile host="app.diagrams.net" modified="2021-08-07T15:41:49.682Z" agent="5.0 (Macintosh; Intel Mac OS X 10_15_7) AppleWebKit/537.36 (KHTML, like Gecko) Chrome/92.0.4515.131 Safari/537.36" etag="n0hooYFtwMntwXoEy6nF" version="14.9.5" type="github">
  <diagram id="MvUqxD_Rl08a9ENwZr59" name="Page-1">
    <mxGraphModel dx="1797" dy="908" grid="1" gridSize="10" guides="1" tooltips="1" connect="1" arrows="1" fold="1" page="1" pageScale="1" pageWidth="1600" pageHeight="900" math="0" shadow="0">
      <root>
        <mxCell id="0" />
        <mxCell id="1" parent="0" />
        <mxCell id="Z5CfP7DGiUJ3qRTbYTNH-38" value="Frontend" style="fontStyle=0;verticalAlign=top;align=center;spacingTop=-2;fillColor=none;rounded=0;whiteSpace=wrap;html=1;strokeColor=#919191;strokeWidth=1;dashed=1;container=1;collapsible=0;expand=0;recursiveResize=0;fontColor=#000000;" vertex="1" parent="1">
          <mxGeometry x="310" y="80" width="410" height="680" as="geometry" />
        </mxCell>
        <mxCell id="Z5CfP7DGiUJ3qRTbYTNH-41" value="Heroku" style="shape=image;html=1;verticalAlign=top;verticalLabelPosition=bottom;labelBackgroundColor=#ffffff;imageAspect=0;aspect=fixed;image=https://cdn1.iconfinder.com/data/icons/simple-icons/128/heroku-128-black.png;fontColor=#000000;" vertex="1" parent="Z5CfP7DGiUJ3qRTbYTNH-38">
          <mxGeometry x="113" y="85.5" width="70" height="70" as="geometry" />
        </mxCell>
        <mxCell id="Z5CfP7DGiUJ3qRTbYTNH-39" value="Backend" style="fontStyle=0;verticalAlign=top;align=center;spacingTop=-2;fillColor=none;rounded=0;whiteSpace=wrap;html=1;strokeColor=#919191;strokeWidth=1;dashed=1;container=1;collapsible=0;expand=0;recursiveResize=0;fontColor=#000000;" vertex="1" parent="1">
          <mxGeometry x="720" y="80" width="520" height="680" as="geometry" />
        </mxCell>
        <mxCell id="Z5CfP7DGiUJ3qRTbYTNH-3" style="edgeStyle=orthogonalEdgeStyle;rounded=1;orthogonalLoop=1;jettySize=auto;html=1;exitX=0.5;exitY=1;exitDx=0;exitDy=0;" edge="1" parent="1" source="Z5CfP7DGiUJ3qRTbYTNH-1" target="Z5CfP7DGiUJ3qRTbYTNH-2">
          <mxGeometry relative="1" as="geometry" />
        </mxCell>
        <mxCell id="Z5CfP7DGiUJ3qRTbYTNH-1" value="User" style="aspect=fixed;perimeter=ellipsePerimeter;html=1;align=center;shadow=0;dashed=0;labelBackgroundColor=#ffffff;fontSize=12;spacingTop=3;image;image=img/lib/ibm/users/user.svg;" vertex="1" parent="1">
          <mxGeometry x="210" y="170" width="60" height="60" as="geometry" />
        </mxCell>
        <mxCell id="Z5CfP7DGiUJ3qRTbYTNH-6" style="edgeStyle=orthogonalEdgeStyle;rounded=1;orthogonalLoop=1;jettySize=auto;html=1;exitX=1;exitY=0.5;exitDx=0;exitDy=0;entryX=0;entryY=0.5;entryDx=0;entryDy=0;fontColor=#000000;" edge="1" parent="1" source="Z5CfP7DGiUJ3qRTbYTNH-2" target="Z5CfP7DGiUJ3qRTbYTNH-41">
          <mxGeometry relative="1" as="geometry">
            <mxPoint x="410" y="200" as="targetPoint" />
          </mxGeometry>
        </mxCell>
        <mxCell id="Z5CfP7DGiUJ3qRTbYTNH-9" value="Connects to" style="edgeLabel;html=1;align=center;verticalAlign=middle;resizable=0;points=[];fontColor=#000000;" vertex="1" connectable="0" parent="Z5CfP7DGiUJ3qRTbYTNH-6">
          <mxGeometry x="-0.3549" y="2" relative="1" as="geometry">
            <mxPoint as="offset" />
          </mxGeometry>
        </mxCell>
        <mxCell id="Z5CfP7DGiUJ3qRTbYTNH-2" value="Browser" style="aspect=fixed;perimeter=ellipsePerimeter;html=1;align=center;shadow=0;dashed=0;labelBackgroundColor=#ffffff;fontSize=12;spacingTop=3;image;image=img/lib/ibm/users/browser.svg;" vertex="1" parent="1">
          <mxGeometry x="210" y="300" width="60" height="60" as="geometry" />
        </mxCell>
        <mxCell id="Z5CfP7DGiUJ3qRTbYTNH-14" style="edgeStyle=orthogonalEdgeStyle;rounded=1;orthogonalLoop=1;jettySize=auto;html=1;exitX=1;exitY=0.5;exitDx=0;exitDy=0;fontColor=#000000;entryX=0;entryY=0.5;entryDx=0;entryDy=0;" edge="1" parent="1" source="Z5CfP7DGiUJ3qRTbYTNH-4" target="Z5CfP7DGiUJ3qRTbYTNH-19">
          <mxGeometry relative="1" as="geometry">
            <mxPoint x="950" y="200.5" as="targetPoint" />
          </mxGeometry>
        </mxCell>
        <mxCell id="Z5CfP7DGiUJ3qRTbYTNH-15" value="Runs" style="edgeLabel;html=1;align=center;verticalAlign=middle;resizable=0;points=[];fontColor=#000000;" vertex="1" connectable="0" parent="Z5CfP7DGiUJ3qRTbYTNH-14">
          <mxGeometry x="-0.1601" relative="1" as="geometry">
            <mxPoint as="offset" />
          </mxGeometry>
        </mxCell>
        <mxCell id="Z5CfP7DGiUJ3qRTbYTNH-4" value="Heroku" style="shape=image;html=1;verticalAlign=top;verticalLabelPosition=bottom;labelBackgroundColor=#ffffff;imageAspect=0;aspect=fixed;image=https://cdn1.iconfinder.com/data/icons/simple-icons/128/heroku-128-black.png;fontColor=#000000;" vertex="1" parent="1">
          <mxGeometry x="760" y="165.5" width="70" height="70" as="geometry" />
        </mxCell>
        <mxCell id="Z5CfP7DGiUJ3qRTbYTNH-8" style="edgeStyle=orthogonalEdgeStyle;rounded=1;orthogonalLoop=1;jettySize=auto;html=1;exitX=1;exitY=0.5;exitDx=0;exitDy=0;entryX=0;entryY=0.5;entryDx=0;entryDy=0;fontColor=#000000;" edge="1" parent="1" source="Z5CfP7DGiUJ3qRTbYTNH-41" target="Z5CfP7DGiUJ3qRTbYTNH-7">
          <mxGeometry relative="1" as="geometry">
            <mxPoint x="479" y="200" as="sourcePoint" />
          </mxGeometry>
        </mxCell>
        <mxCell id="Z5CfP7DGiUJ3qRTbYTNH-10" value="Runs" style="edgeLabel;html=1;align=center;verticalAlign=middle;resizable=0;points=[];fontColor=#000000;" vertex="1" connectable="0" parent="Z5CfP7DGiUJ3qRTbYTNH-8">
          <mxGeometry x="-0.0943" y="-1" relative="1" as="geometry">
            <mxPoint as="offset" />
          </mxGeometry>
        </mxCell>
        <mxCell id="Z5CfP7DGiUJ3qRTbYTNH-11" style="edgeStyle=orthogonalEdgeStyle;rounded=1;orthogonalLoop=1;jettySize=auto;html=1;exitX=1;exitY=0.5;exitDx=0;exitDy=0;entryX=0;entryY=0.5;entryDx=0;entryDy=0;fontColor=#000000;" edge="1" parent="1" source="Z5CfP7DGiUJ3qRTbYTNH-7" target="Z5CfP7DGiUJ3qRTbYTNH-4">
          <mxGeometry relative="1" as="geometry" />
        </mxCell>
        <mxCell id="Z5CfP7DGiUJ3qRTbYTNH-12" value="Connects to" style="edgeLabel;html=1;align=center;verticalAlign=middle;resizable=0;points=[];fontColor=#000000;" vertex="1" connectable="0" parent="Z5CfP7DGiUJ3qRTbYTNH-11">
          <mxGeometry x="-0.2957" y="3" relative="1" as="geometry">
            <mxPoint as="offset" />
          </mxGeometry>
        </mxCell>
        <mxCell id="Z5CfP7DGiUJ3qRTbYTNH-24" style="edgeStyle=orthogonalEdgeStyle;rounded=1;orthogonalLoop=1;jettySize=auto;html=1;exitX=0.5;exitY=1;exitDx=0;exitDy=0;entryX=0.5;entryY=0;entryDx=0;entryDy=0;fontColor=#000000;" edge="1" parent="1" source="Z5CfP7DGiUJ3qRTbYTNH-7" target="Z5CfP7DGiUJ3qRTbYTNH-22">
          <mxGeometry relative="1" as="geometry" />
        </mxCell>
        <mxCell id="Z5CfP7DGiUJ3qRTbYTNH-26" value="Stored on" style="edgeLabel;html=1;align=center;verticalAlign=middle;resizable=0;points=[];fontColor=#000000;" vertex="1" connectable="0" parent="Z5CfP7DGiUJ3qRTbYTNH-24">
          <mxGeometry x="0.1411" y="1" relative="1" as="geometry">
            <mxPoint as="offset" />
          </mxGeometry>
        </mxCell>
        <mxCell id="Z5CfP7DGiUJ3qRTbYTNH-7" value="agile-dashboard&lt;br&gt;frontend" style="shape=image;html=1;verticalAlign=top;verticalLabelPosition=bottom;labelBackgroundColor=#ffffff;imageAspect=0;aspect=fixed;image=https://cdn4.iconfinder.com/data/icons/logos-3/600/React.js_logo-128.png;fontColor=#000000;" vertex="1" parent="1">
          <mxGeometry x="580" y="170" width="60" height="60" as="geometry" />
        </mxCell>
        <mxCell id="Z5CfP7DGiUJ3qRTbYTNH-17" style="edgeStyle=orthogonalEdgeStyle;rounded=1;orthogonalLoop=1;jettySize=auto;html=1;entryX=0;entryY=0.5;entryDx=0;entryDy=0;fontColor=#000000;exitX=1;exitY=0.5;exitDx=0;exitDy=0;" edge="1" parent="1" source="Z5CfP7DGiUJ3qRTbYTNH-19" target="Z5CfP7DGiUJ3qRTbYTNH-16">
          <mxGeometry relative="1" as="geometry">
            <mxPoint x="984.4000000000001" y="200.52173913043475" as="sourcePoint" />
          </mxGeometry>
        </mxCell>
        <mxCell id="Z5CfP7DGiUJ3qRTbYTNH-18" value="Connects and retrieves data" style="edgeLabel;html=1;align=center;verticalAlign=middle;resizable=0;points=[];fontColor=#000000;" vertex="1" connectable="0" parent="Z5CfP7DGiUJ3qRTbYTNH-17">
          <mxGeometry x="-0.3259" relative="1" as="geometry">
            <mxPoint as="offset" />
          </mxGeometry>
        </mxCell>
        <mxCell id="Z5CfP7DGiUJ3qRTbYTNH-16" value="agile-dashboard&lt;br&gt;IBM DB2" style="aspect=fixed;perimeter=ellipsePerimeter;html=1;align=center;shadow=0;dashed=0;labelBackgroundColor=#ffffff;fontSize=12;spacingTop=3;image;image=img/lib/ibm/data/data_services.svg;" vertex="1" parent="1">
          <mxGeometry x="1300" y="380" width="60" height="60" as="geometry" />
        </mxCell>
        <mxCell id="Z5CfP7DGiUJ3qRTbYTNH-25" style="edgeStyle=orthogonalEdgeStyle;rounded=1;orthogonalLoop=1;jettySize=auto;html=1;exitX=0.5;exitY=1;exitDx=0;exitDy=0;entryX=0.5;entryY=0;entryDx=0;entryDy=0;fontColor=#000000;" edge="1" parent="1" source="Z5CfP7DGiUJ3qRTbYTNH-19" target="Z5CfP7DGiUJ3qRTbYTNH-23">
          <mxGeometry relative="1" as="geometry" />
        </mxCell>
        <mxCell id="Z5CfP7DGiUJ3qRTbYTNH-27" value="Stored on" style="edgeLabel;html=1;align=center;verticalAlign=middle;resizable=0;points=[];fontColor=#000000;" vertex="1" connectable="0" parent="Z5CfP7DGiUJ3qRTbYTNH-25">
          <mxGeometry x="0.1946" y="-2" relative="1" as="geometry">
            <mxPoint as="offset" />
          </mxGeometry>
        </mxCell>
        <mxCell id="Z5CfP7DGiUJ3qRTbYTNH-19" value="&lt;span style=&quot;color: rgb(0 , 0 , 0) ; background-color: rgb(248 , 249 , 250)&quot;&gt;agile-dashboard-microservices&lt;/span&gt;&lt;br style=&quot;color: rgb(0 , 0 , 0) ; background-color: rgb(248 , 249 , 250)&quot;&gt;&lt;span style=&quot;color: rgb(0 , 0 , 0) ; background-color: rgb(248 , 249 , 250)&quot;&gt;backend&lt;/span&gt;" style="aspect=fixed;perimeter=ellipsePerimeter;html=1;align=center;shadow=0;dashed=0;fontColor=#4277BB;labelBackgroundColor=#ffffff;fontSize=12;spacingTop=3;image;image=img/lib/ibm/applications/microservice.svg;" vertex="1" parent="1">
          <mxGeometry x="940" y="170" width="82.2" height="60" as="geometry" />
        </mxCell>
        <mxCell id="Z5CfP7DGiUJ3qRTbYTNH-20" value="" style="shape=image;html=1;verticalAlign=top;verticalLabelPosition=bottom;labelBackgroundColor=#ffffff;imageAspect=0;aspect=fixed;image=https://cdn2.iconfinder.com/data/icons/designer-skills/128/code-programming-javascript-software-develop-command-language-128.png;fontColor=#000000;" vertex="1" parent="1">
          <mxGeometry x="585" y="120" width="50" height="50" as="geometry" />
        </mxCell>
        <mxCell id="Z5CfP7DGiUJ3qRTbYTNH-21" value="" style="dashed=0;outlineConnect=0;html=1;align=center;labelPosition=center;verticalLabelPosition=bottom;verticalAlign=top;shape=mxgraph.weblogos.java;fontColor=#000000;" vertex="1" parent="1">
          <mxGeometry x="960" y="115.5" width="26.46" height="50" as="geometry" />
        </mxCell>
        <mxCell id="Z5CfP7DGiUJ3qRTbYTNH-29" style="edgeStyle=orthogonalEdgeStyle;rounded=1;orthogonalLoop=1;jettySize=auto;html=1;exitX=0.5;exitY=1;exitDx=0;exitDy=0;entryX=0.5;entryY=0;entryDx=0;entryDy=0;fontColor=#000000;" edge="1" parent="1" source="Z5CfP7DGiUJ3qRTbYTNH-22" target="Z5CfP7DGiUJ3qRTbYTNH-28">
          <mxGeometry relative="1" as="geometry" />
        </mxCell>
        <mxCell id="Z5CfP7DGiUJ3qRTbYTNH-30" value="holds" style="edgeLabel;html=1;align=center;verticalAlign=middle;resizable=0;points=[];fontColor=#000000;" vertex="1" connectable="0" parent="Z5CfP7DGiUJ3qRTbYTNH-29">
          <mxGeometry x="0.1617" y="-2" relative="1" as="geometry">
            <mxPoint as="offset" />
          </mxGeometry>
        </mxCell>
        <mxCell id="Z5CfP7DGiUJ3qRTbYTNH-22" value="agile-dashboard&lt;br&gt;repo" style="shape=image;html=1;verticalAlign=top;verticalLabelPosition=bottom;labelBackgroundColor=#ffffff;imageAspect=0;aspect=fixed;image=https://cdn4.iconfinder.com/data/icons/ionicons/512/icon-social-github-128.png;fontColor=#000000;" vertex="1" parent="1">
          <mxGeometry x="580" y="360" width="60" height="60" as="geometry" />
        </mxCell>
        <mxCell id="Z5CfP7DGiUJ3qRTbYTNH-32" style="edgeStyle=orthogonalEdgeStyle;rounded=1;orthogonalLoop=1;jettySize=auto;html=1;exitX=0.5;exitY=1;exitDx=0;exitDy=0;entryX=0.5;entryY=0;entryDx=0;entryDy=0;fontColor=#000000;" edge="1" parent="1" source="Z5CfP7DGiUJ3qRTbYTNH-23" target="Z5CfP7DGiUJ3qRTbYTNH-31">
          <mxGeometry relative="1" as="geometry" />
        </mxCell>
        <mxCell id="Z5CfP7DGiUJ3qRTbYTNH-33" value="holds" style="edgeLabel;html=1;align=center;verticalAlign=middle;resizable=0;points=[];fontColor=#000000;" vertex="1" connectable="0" parent="Z5CfP7DGiUJ3qRTbYTNH-32">
          <mxGeometry x="0.2487" y="-2" relative="1" as="geometry">
            <mxPoint as="offset" />
          </mxGeometry>
        </mxCell>
        <mxCell id="Z5CfP7DGiUJ3qRTbYTNH-23" value="agile-dashboard-microservices&lt;br&gt;repo" style="shape=image;html=1;verticalAlign=top;verticalLabelPosition=bottom;labelBackgroundColor=#ffffff;imageAspect=0;aspect=fixed;image=https://cdn4.iconfinder.com/data/icons/ionicons/512/icon-social-github-128.png;fontColor=#000000;" vertex="1" parent="1">
          <mxGeometry x="951.1" y="360" width="60" height="60" as="geometry" />
        </mxCell>
        <mxCell id="Z5CfP7DGiUJ3qRTbYTNH-42" style="edgeStyle=orthogonalEdgeStyle;rounded=1;orthogonalLoop=1;jettySize=auto;html=1;exitX=0;exitY=0.5;exitDx=0;exitDy=0;entryX=0;entryY=0.75;entryDx=0;entryDy=0;fontColor=#000000;" edge="1" parent="1" source="Z5CfP7DGiUJ3qRTbYTNH-28" target="Z5CfP7DGiUJ3qRTbYTNH-41">
          <mxGeometry relative="1" as="geometry" />
        </mxCell>
        <mxCell id="Z5CfP7DGiUJ3qRTbYTNH-43" value="Deployed to" style="edgeLabel;html=1;align=center;verticalAlign=middle;resizable=0;points=[];fontColor=#000000;" vertex="1" connectable="0" parent="Z5CfP7DGiUJ3qRTbYTNH-42">
          <mxGeometry x="-0.4648" y="-2" relative="1" as="geometry">
            <mxPoint as="offset" />
          </mxGeometry>
        </mxCell>
        <mxCell id="Z5CfP7DGiUJ3qRTbYTNH-28" value="agile-dashboard&lt;br&gt;Dockerfile" style="shape=image;html=1;verticalAlign=top;verticalLabelPosition=bottom;labelBackgroundColor=#ffffff;imageAspect=0;aspect=fixed;image=https://cdn4.iconfinder.com/data/icons/logos-and-brands/512/97_Docker_logo_logos-128.png;fontColor=#000000;" vertex="1" parent="1">
          <mxGeometry x="575" y="520" width="70" height="70" as="geometry" />
        </mxCell>
        <mxCell id="Z5CfP7DGiUJ3qRTbYTNH-34" style="edgeStyle=orthogonalEdgeStyle;rounded=1;orthogonalLoop=1;jettySize=auto;html=1;exitX=0;exitY=0.5;exitDx=0;exitDy=0;entryX=0;entryY=0.75;entryDx=0;entryDy=0;fontColor=#000000;" edge="1" parent="1" source="Z5CfP7DGiUJ3qRTbYTNH-31" target="Z5CfP7DGiUJ3qRTbYTNH-4">
          <mxGeometry relative="1" as="geometry" />
        </mxCell>
        <mxCell id="Z5CfP7DGiUJ3qRTbYTNH-35" value="Deployed to" style="edgeLabel;html=1;align=center;verticalAlign=middle;resizable=0;points=[];fontColor=#000000;" vertex="1" connectable="0" parent="Z5CfP7DGiUJ3qRTbYTNH-34">
          <mxGeometry x="-0.3714" y="1" relative="1" as="geometry">
            <mxPoint as="offset" />
          </mxGeometry>
        </mxCell>
        <mxCell id="Z5CfP7DGiUJ3qRTbYTNH-31" value="agile-dashboard-microservices&lt;br&gt;Dockerfile" style="shape=image;html=1;verticalAlign=top;verticalLabelPosition=bottom;labelBackgroundColor=#ffffff;imageAspect=0;aspect=fixed;image=https://cdn4.iconfinder.com/data/icons/logos-and-brands/512/97_Docker_logo_logos-128.png;fontColor=#000000;" vertex="1" parent="1">
          <mxGeometry x="946.1" y="520" width="70" height="70" as="geometry" />
        </mxCell>
        <mxCell id="Z5CfP7DGiUJ3qRTbYTNH-36" value="IBM Cloud" style="shape=mxgraph.ibm.box;prType=cloud;fontStyle=0;verticalAlign=top;align=left;spacingLeft=32;spacingTop=4;fillColor=none;rounded=0;whiteSpace=wrap;html=1;strokeColor=#4376BB;strokeWidth=1;dashed=0;container=1;spacing=-4;collapsible=0;expand=0;recursiveResize=0;fontColor=#000000;" vertex="1" parent="1">
          <mxGeometry x="1240" y="80" width="200" height="680" as="geometry" />
        </mxCell>
        <mxCell id="Z5CfP7DGiUJ3qRTbYTNH-37" value="Public Network" style="shape=mxgraph.ibm.box;prType=public;fontStyle=0;verticalAlign=top;align=left;spacingLeft=32;spacingTop=4;fillColor=none;rounded=0;whiteSpace=wrap;html=1;strokeColor=#4376BB;strokeWidth=1;dashed=0;container=1;spacing=-4;collapsible=0;expand=0;recursiveResize=0;fontColor=#000000;" vertex="1" parent="1">
          <mxGeometry x="170" y="80" width="140" height="680" as="geometry" />
        </mxCell>
      </root>
    </mxGraphModel>
  </diagram>
</mxfile>
